<svg xmlns="http://www.w3.org/2000/svg" width="82.085" height="66.7" viewBox="0 0 82.085 66.7">
  <g>
    <g>
      <path fill="rgb(245,227,56)" fill-rule="evenodd" d="M33.29682922 0C14.9513092 0 0 14.83459473 0 33.09899902 0 51.3355713 14.92326355 66.19799805 33.29682922 66.19799805c18.34550476 0 33.2968216-14.83459473 33.2968216-33.09899903C66.59365082 14.8624878 51.67038727 0 33.29682922 0zm9.28495789 16.34039307c-2.27215576-7.3894043-5.89076233-11.87884522-9.28495789-11.87884522-3.39420318 0-7.01281738 4.48944092-9.28496551 11.85095215 2.94538116 1.00384521 6.08712005 1.53363037 9.28496551 1.53363037 3.19783783 0 6.33957672-.50189209 9.28495789-1.5057373zM19.8602829 14.5836792c-1.79528046-.94812012-3.47835541-2.09136963-5.07727814-3.4019165 2.63681793-2.2029419 5.6944046-3.95965577 9.03250122-5.13079834-.84153747 1.25482177-1.65502167 2.70483398-2.38435364 4.29425048-.56102752 1.33843995-1.09400177 2.76055909-1.57086944 4.23846436zm25.27416229-4.21063233c-.72933197-1.61730957-1.51476288-3.0394287-2.38435364-4.29425048 3.33809662 1.1432495 6.3956833 2.90002441 9.03250122 5.13079834-1.57086944 1.31054687-3.28199768 2.45379638-5.07727813 3.4019165-.4488144-1.50579834-.95374298-2.92791748-1.57086945-4.23846435zM11.5851593 14.3326416c2.18800354 1.86828613 4.57235718 3.42980957 7.0969696 4.65673828-.81349182 3.68078614-1.31841277 7.696167-1.43061828 11.87884522H4.60040283c.4768715-6.30194092 3.02953339-12.04614258 6.98475647-16.5355835zm36.3544159 4.65673828c.81348419 3.70861817 1.2903595 7.72399903 1.43061065 11.87884522h12.65111542c-.4768753-6.30194092-3.02953339-12.04614258-6.9847641-16.5355835-2.15994263 1.86828613-4.57234955 3.42980957-7.09696197 4.65673828zm-4.23573304 1.70098877c-3.31005096 1.08752442-6.81645202 1.64520264-10.40701294 1.64520264-3.5905609 0-7.06891632-.55767822-10.37895965-1.64520264-.64517975 3.06732178-1.06594849 6.49713135-1.178154 10.17785645h23.14227296c-.14025116-3.70861817-.53297425-7.11053467-1.17814637-10.17785645zM17.25151062 35.32983398H4.60040283c.4768715 6.30187989 3.02953339 12.04614258 6.98475647 16.53552247 2.15995026-1.86816407 4.57235718-3.42980958 7.0969696-4.65673829C17.86863709 43.5 17.3917694 39.48461914 17.25151063 35.32983398zm27.6304779 0c-.1122055 3.68078614-.53297424 7.1105957-1.17815399 10.17785645-3.31004333-1.08752441-6.81645202-1.6451416-10.4070053-1.6451416-3.59056092 0-7.09696961.55761719-10.40701295 1.6451416-.64517974-3.06726074-1.0378952-6.46923828-1.17815399-10.17785645h23.17032624zm3.0295334 11.87878418c.81348418-3.68066406 1.31840514-7.69604492 1.43061065-11.87878418h12.65111542c-.50492096 6.30187989-3.05758667 12.04614258-6.9847641 16.53552247-2.15994263-1.86816407-4.54429627-3.42980958-7.09696198-4.65673829zm-14.6146927 1.08752442c-3.19784546 0-6.33958435.52978515-9.28496551 1.5336914 2.27214813 7.41723633 5.89076233 11.87878418 9.28496551 11.85095215 3.36614228 0 7.01280213-4.48950195 9.28495789-11.87890625-2.94538117-.97595215-6.05906677-1.5057373-9.28495789-1.5057373zm-11.8376236 7.5288086c.72933198 1.61730956 1.51476289 3.0394287 2.38435365 4.29431152-3.33809662-1.14331055-6.3956833-2.90002442-9.03250123-5.1307373 1.57086945-1.31066895 3.28199769-2.45385743 5.07727814-3.40197755.4488144 1.5057373.98178864 2.92785645 1.57086945 4.23840332zm25.2741623-4.2105713c-.47686768 1.47790528-1.00984192 2.90002442-1.5989151 4.2105713-.70128632 1.61730956-1.5147705 3.0394287-2.35630798 4.32214355 3.33809662-1.17114258 6.39568328-2.92785645 9.03250122-5.1307373-1.59892273-1.31066895-3.28199768-2.45385743-5.07727814-3.40197755z"/>
      <path fill="rgb(245,227,56)" fill-rule="evenodd" d="M52.28751683 40.99035561h-37.9813825c-1.851382 0-3.36614911-1.50576889-3.36614911-3.34615308v-9.11826715c0-1.8403842 1.5147671-3.34615308 3.36614911-3.34615308h37.9813825c1.85138201 0 3.36614911 1.50576888 3.36614911 3.34615308v9.11826715c0 1.8403842-1.5147671 3.34615308-3.36614911 3.34615308z"/>
      <text font-size="0" style="white-space:pre">
        <tspan x="14.948" y="38.383" fill="rgb(0,0,0)" font-family="Arial" font-size="15.13" font-weight="400" style="white-space:pre;text-transform:none" letter-spacing="1.302">www</tspan>
      </text>
    </g>
    <g>
      <path fill="rgb(245,227,56)" fill-rule="evenodd" d="M75.73836656 65.61247563c-.58907624 0-1.15010124-.22307694-1.59892124-.6413462l-5.75050621-5.7721159-2.32825374 4.29423115c-.3927175.72500006-1.15010124 1.17115394-1.96358748 1.17115394-.98179375 0-1.82333124-.61346159-2.131895-1.53365398l-6.8164537-20.355771c-.22441-.69711545-.112205-1.4221155.30856375-2.00769248.42076875-.58557698 1.09399874-.9201924 1.82333124-.9201924.25246125 0 .47687125.02788463.70128124.11153848l20.44936112 6.77596213c.86958875.27884618 1.458665 1.03173086 1.5147675 1.92403863.08415374.89230777-.36466625 1.7288463-1.1781525 2.14711557l-4.31989247 2.31442328 5.77855746 5.74423127c.42076875.41826927.64517875.97596162.64517875 1.58942321 0 .58557698-.22441 1.14326933-.64517875 1.58942322l-2.88927873 2.87211563c-.42076875.44615389-.98179374.69711545-1.59892124.69711545z"/>
      <path fill="none" d="M54.53162384 40.15393066c.61712647-.86450195 1.65502167-1.3942871 2.72097015-1.3942871.3646698 0 .70128632.05578613 1.15010071.11157226l20.44935608 6.7758789c1.2903595.446167 2.18800354 1.56164551 2.30020142 2.90002442.11221313 1.33850098-.58908081 2.59326172-1.76722718 3.23461914l-3.0014801 1.61730957 4.71261597 4.68457031c1.31840515 1.31066895 1.31840515 3.42980957 0 4.74047852l-1.4586792 1.44995117-1.45866394 1.45007324c-.64517212.64123536-1.4867096.97595215-2.38435364.97595215-.89764404 0-1.73916626-.3347168-2.38435364-.97595215l-4.71260833-4.68469238-1.62696839 2.98364258c-.5890808 1.08752441-1.73918152 1.75671387-2.97343445 1.75671387-1.45866394 0-2.74902343-.92016602-3.19783783-2.28649903l-6.81645202-20.32788086c-.3646698-1.03173828-.19636536-2.1192627.44881439-3.0114746zm3.08563995.89221192c-.1122055-.0279541-.25246429-.05578613-.3646698-.05578613-.72933197 0-1.31840515.72497558-1.06594085 1.47790527l6.84449768 20.35571289c.16831207.50195312.61712646.75292969 1.06594848.75292969.39271546 0 .75738526-.19519043.98179627-.5855713l2.3282547-4.29431152c.19635773-.39038085.58907318-.58557128.98178863-.58557128.28050995 0 .56102753.11157226.78543854.3347168l5.7785492 5.74414062c.224411.22314453.50492858.3347168.78544616.3347168.28050232 0 .5610199-.11157227.78543091-.3347168l2.91732788-2.89990235c.44882202-.44616699.44882202-1.14331054 0-1.58947754l-5.77856445-5.7442627c-.53295899-.52978515-.42076111-1.42211913.25247192-1.78454589l4.31988526-2.31445312c.86959839-.446167.75738525-1.72888184-.16830445-2.03552247L57.6172638 41.04614258z"/>
    </g>
  </g>
</svg>
