<svg xmlns="http://www.w3.org/2000/svg" xmlns:xlink="http://www.w3.org/1999/xlink" width="67" height="67" viewBox="0 0 67 67">
  <defs>
    <rect id="rect-1" width="67" height="67" x="0" y="0"/>
    <mask id="mask-2" maskContentUnits="userSpaceOnUse" maskUnits="userSpaceOnUse">
      <rect width="67" height="67" x="0" y="0" fill="black"/>
      <use fill="white" xlink:href="#rect-1"/>
    </mask>
  </defs>
  <g>
    <use fill="none" xlink:href="#rect-1"/>
    <g mask="url(#mask-2)">
      <path fill="rgb(245,227,56)" fill-rule="evenodd" d="M33.5 0C15.075 0 0 15.075 0 33.5c0 14.79583333 9.49166667 27.35833333 22.89166667 31.825 1.675.27916667 2.23333333-.8375 2.23333333-1.675v-6.14166667C15.9125 59.4625 13.95833333 53.6 13.95833333 53.6c-1.39583333-3.90833333-3.62916666-5.025-3.62916666-5.025-3.07083334-1.95416667.27916666-1.95416667.27916666-1.95416667 3.35.27916667 5.025 3.35 5.025 3.35C18.70416667 54.99583333 23.45 53.6 25.40416667 52.7625c.27916666-2.23333333 1.11666666-3.62916667 2.23333333-4.46666667-7.81666667-.8375-15.63333333-3.62916666-15.63333333-16.47083333 0-3.62916667 1.39583333-6.7 3.35-8.93333333 0-.8375-1.39583334-4.46666667.55833333-8.93333334 0 0 2.79166667-.8375 9.2125 3.35 2.79166667-.8375 5.58333333-1.11666666 8.375-1.11666666 2.79166667 0 5.58333333.27916666 8.375 1.11666666 6.42083333-4.1875 9.2125-3.35 9.2125-3.35 1.95416667 4.74583334.55833333 8.09583334.27916667 8.93333334 2.23333333 2.23333333 3.35 5.30416666 3.35 8.93333333 0 12.84166667-7.81666667 15.63333333-15.35416667 16.47083333C40.47916667 49.4125 41.59583333 51.36666667 41.59583333 54.4375V63.65c0 .8375.55833334 1.95416667 2.23333334 1.675C57.50833333 60.85833333 67 48.29583333 67 33.5 67 15.075 51.925 0 33.5 0z"/>
    </g>
  </g>
</svg>
