<?xml version="1.0" encoding="utf-8"?>
<!-- Generator: Adobe Illustrator 24.2.3, SVG Export Plug-In . SVG Version: 6.00 Build 0)  -->
<svg version="1.1" id="Calque_1" xmlns="http://www.w3.org/2000/svg" xmlns:xlink="http://www.w3.org/1999/xlink" x="0px" y="0px"
	 viewBox="0 0 48.8 44" style="enable-background:new 0 0 48.8 44;" xml:space="preserve">
<style type="text/css">
	.st0{fill:none;}
	.st1{filter:url(#Adobe_OpacityMaskFilter);}
	.st2{fill:#FFFFFF;}
	.st3{mask:url(#b_1_);}
	.st4{fill-rule:evenodd;clip-rule:evenodd;fill:#FFFFFF;}
</style>
<g>
	<path id="a_1_" class="st0" d="M0,0h48.8v44H0V0z"/>
</g>
<defs>
	<filter id="Adobe_OpacityMaskFilter" filterUnits="userSpaceOnUse" x="0" y="0" width="48.8" height="44">
		<feColorMatrix  type="matrix" values="1 0 0 0 0  0 1 0 0 0  0 0 1 0 0  0 0 0 1 0"/>
	</filter>
</defs>
<mask maskUnits="userSpaceOnUse" x="0" y="0" width="48.8" height="44" id="b_1_">
	<path class="st1" d="M0,0h48.8v44H0V0z"/>
	<g>
		<path id="a_2_" class="st2" d="M0,0h48.8v44H0V0z"/>
	</g>
</mask>
<g class="st3">
	<path class="st4" d="M0,44h6.2l14.4-26l12.8,12.3L20.6,7.2L0,44z"/>
	<path class="st4" d="M8.1,44l12.8-23.2l-3.8,17.7h28.7l3,5.5H8.1L8.1,44z"/>
	<path class="st4" d="M19.1,36.8h25.8L24.7,0l-3,5.4l14.2,26L19.1,36.8L19.1,36.8z"/>
</g>
</svg>
