<?xml version="1.0" encoding="utf-8"?>
<!-- Generator: Adobe Illustrator 24.2.3, SVG Export Plug-In . SVG Version: 6.00 Build 0)  -->
<svg version="1.1" id="Calque_1" xmlns="http://www.w3.org/2000/svg" xmlns:xlink="http://www.w3.org/1999/xlink" x="0px" y="0px"
	 viewBox="0 0 44 44" style="enable-background:new 0 0 44 44;" xml:space="preserve">
<style type="text/css">
	.st0{fill:none;}
	.st1{filter:url(#Adobe_OpacityMaskFilter);}
	.st2{fill:#FFFFFF;}
	.st3{mask:url(#b_1_);}
	.st4{fill-rule:evenodd;clip-rule:evenodd;fill:#FFFFFF;}
</style>
<g>
	<path id="a_1_" class="st0" d="M0,0h44v44H0V0z"/>
</g>
<defs>
	<filter id="Adobe_OpacityMaskFilter" filterUnits="userSpaceOnUse" x="0" y="0" width="44" height="44">
		<feColorMatrix  type="matrix" values="1 0 0 0 0  0 1 0 0 0  0 0 1 0 0  0 0 0 1 0"/>
	</filter>
</defs>
<mask maskUnits="userSpaceOnUse" x="0" y="0" width="44" height="44" id="b_1_">
	<path class="st1" d="M0,0h44v44H0V0z"/>
	<g>
		<path id="a_2_" class="st2" d="M0,0h44v44H0V0z"/>
	</g>
</mask>
<g class="st3">
	<path class="st4" d="M26.2,17.8c-1.4-1.4-3.5-2.1-5.5-1.6c-0.2,0.6-0.4,1.3-0.4,2c0,3.7,3.4,6.7,7.2,5.8c0.2-0.6,0.4-1.3,0.4-2
		C28,20.4,27.3,18.9,26.2,17.8z"/>
	<path class="st4" d="M0,22C0,9.9,9.9,0,22,0c12.2,0,22,9.9,22,22c0,12.2-9.8,22-22,22C9.9,44,0,34.2,0,22z M29,22.5h4.9
		c0.3,0,0.4-0.2,0.4-0.5s-0.2-0.5-0.5-0.5h-4.9c-0.1-1.5-0.7-2.9-1.7-4l3.5-3.5c0.1-0.1,0.1-0.3,0.1-0.5c-0.1-0.2-0.2-0.4-0.4-0.4
		c-0.2-0.1-0.4,0-0.5,0.1l-3.5,3.5c-1.2-1.1-2.5-1.6-4-1.7v-5c0-0.3-0.2-0.5-0.5-0.5s-0.5,0.2-0.5,0.5v4.9c-1.6,0.2-2.9,0.8-4,1.7
		l-3.5-3.5c-0.1-0.1-0.3-0.2-0.5-0.1S13,13.2,13,13.4s0,0.4,0.2,0.6l3.5,3.4c-1,1.1-1.6,2.5-1.7,4h-4.9c-0.2,0-0.4,0.1-0.5,0.3
		c-0.1,0.1-0.1,0.3,0,0.5s0.3,0.3,0.5,0.3H15c0.1,1.5,0.7,2.9,1.7,4L13.2,30c-0.2,0.3-0.2,0.6,0,0.8c0.2,0.2,0.6,0.2,0.8,0l3.3-3.5
		c1.1,1,2.5,1.6,4,1.7v4.9c0,0.2,0.1,0.4,0.3,0.5c0.2,0.1,0.4,0.1,0.6,0s0.3-0.3,0.3-0.5V29c1.5-0.1,2.9-0.7,4-1.7l3.5,3.5
		c0.1,0.1,0.3,0.2,0.4,0.2c0.2,0,0.4-0.2,0.5-0.4c0.1-0.2,0.1-0.4-0.1-0.6l-3.5-3.5C28.4,25.3,28.9,24.1,29,22.5z"/>
</g>
</svg>
