<svg xmlns="http://www.w3.org/2000/svg" width="22" height="22" viewBox="0 0 22 22">
  <path fill="rgb(255,255,255)" fill-rule="evenodd" d="M14.29999542.48120117C14.27765656.2388916 14.45640564.02233887 14.69874572 0H22v7.21875c.00171661.15808105-.08078003.3059082-.2182846.38671875-.13749696.07910156-.30593873.07910156-.44343568 0-.13749694-.08081055-.22000122-.2286377-.2182846-.38671875V1.51245117l-9.19874573 9.1850586c-.10655975.13061523-.27671814.1907959-.44171906.1529541-.1632843-.0378418-.29219055-.16674805-.33000183-.32995606-.03781128-.16503906.0223465-.33520508.15296936-.44177246L20.48749542.88000488H14.78125c-.24234772.02233887-.45890808-.15637207-.48125458-.3988037zM.24749756 4.64758301c.16671753-.16674805.40219116-.2475586.6324997-.2475586h13.20000457c.15812683-.00170898.30593872.08081055.38671875.21826172.07906342.13757324.07906342.3059082 0 .44348145-.08078003.13745117-.22859192.2199707-.38671875.21826172H.87999725v15.83996582h15.84000397V7.92004395c-.00172424-.15808106.08078003-.3059082.21827698-.38671875.13750458-.07910157.30593872-.07910157.4434433 0 .13749694.08081054.21999359.2286377.21827697.38671875v13.19995117c0 .23034668-.08078003.46582031-.24749755.63256836C17.18578339 21.91931152 16.95031738 22 16.72000122 22H.87999725c-.23030853 0-.46578216-.08068848-.6324997-.24743652C.08078004 21.58581543 0 21.3503418 0 21.11999512V5.2800293c0-.23034668.08078003-.46582032.24749756-.6324463z"/>
</svg>
