<svg xmlns="http://www.w3.org/2000/svg" width="22" height="22" viewBox="0 0 22 22">
  <path fill="rgb(0,0,0)" fill-rule="evenodd" d="M14.30001831.4812622C14.27764893.2388916 14.4564209.02233888 14.698761 0H22v7.21875c.0017395.15814209-.08078003.3059082-.21826172.38671875-.1375122.07904053-.30593872.07904053-.44345093 0-.1375122-.08081055-.22000122-.22857666-.21829223-.38671875V1.5125122l-9.19873047 9.18499757c-.10656738.13061523-.2767334.1907959-.44174194.1529541-.16326905-.03778076-.2921753-.16668701-.32998658-.3300171-.03781128-.16497802.02233887-.33514404.15298462-.44171142L20.48751831.88000488H14.78125c-.24234009.02233887-.45889282-.1564331-.48123169-.39874267zM.24749756 4.64746095c.16671753-.16668701.40219116-.24749756.63250732-.24749756h13.1999817c.15814208-.00170899.30593871.08081055.38671874.21826172.07907105.1375122.07907105.30596924 0 .44348144-.08078003.13751221-.22857666.2199707-.38671875.21826172H.88000488v15.84002686h15.83999634V7.9199829c-.00170898-.15814209.08078003-.30596924.21829224-.38671875.13748169-.07910156.30593872-.07910156.4434204 0 .13751221.08074951.22000123.22857666.21829224.38671875v13.2000122c0 .23028565-.08078003.46575928-.24749756.63250733C17.18579102 21.91918945 16.95031738 22 16.72000122 22H.88000488c-.23031616 0-.4657898-.08081055-.63250732-.24749756C.08078003 21.5857544 0 21.35028076 0 21.11999512V5.27996826c0-.23028564.08078003-.46575928.24749756-.63250732z"/>
</svg>
